<?xml version="1.0" encoding="ISO-8859-1"?>
<!DOCTYPE svg PUBLIC "-//W3C//DTD SVG 1.0//EN" "http://www.w3.org/TR/2001/REC-SVG-20010904/DTD/svg10.dtd">
<!-- generated by Grace-5.1.25 -->
<svg xml:space="preserve" width="11.0000in" height="8.5000in" viewBox="0.0000 0.0000 792.0000 612.0000">
 <g transform="translate(0,612.0000) scale(1,-1)">
 <desc></desc>
  <g style="fill:#FFFFFF; fill-rule:nonzero">
   <path  d="M0.0000,0.0000L0.0000,612.0000L792.0000,612.0000L792.0000,0.0000z"/>
  </g>
  <g style="fill:none; stroke:#0000FF; stroke-width:  1.3770; stroke-linecap:butt; stroke-linejoin:miter; stroke-dasharray:none">
   <path d="M91.8000,415.3500L92.1575,418.0953L92.5150,420.8347L92.8724,423.5620L93.2299,426.2714L93.5874,428.9569L93.9449,431.6126L94.3024,434.2329L94.6598,436.8120L95.0173,439.3443
            L95.3748,441.8244L95.7323,444.2470L96.0897,446.6069L96.4472,448.8992L96.8047,451.1189L97.1622,453.2615L97.5197,455.3225L97.8771,457.2978L98.2346,459.1832L98.5921,460.9752
            L98.9496,462.6701L99.3071,464.2646L99.6645,465.7559L100.0220,467.1411L100.3795,468.4179L100.7370,469.5840L101.0944,470.6375L101.4519,471.5770L101.8094,472.4010L102.1669,473.1086
            L102.5244,473.6992L102.8818,474.1723L103.2393,474.5279L103.5968,474.7662L103.9543,474.8877L104.3118,474.8934L104.6692,474.7842L105.0267,474.5618L105.3842,474.2277L105.7417,473.7841
            L106.0991,473.2333L106.4566,472.5778L106.8141,471.8204L107.1716,470.9644L107.5291,470.0131L107.8865,468.9700L108.2440,467.8392L108.6015,466.6246L108.9590,465.3305L109.3165,463.9614
            L109.6739,462.5221L110.0314,461.0174L110.3889,459.4523L110.7464,457.8320L111.1039,456.1619L111.4613,454.4473L111.8188,452.6939L112.1763,450.9073L112.5338,449.0931L112.8912,447.2573
            L113.2487,445.4057L113.6062,443.5441L113.9637,441.6784L114.3212,439.8145L114.6786,437.9583L115.0361,436.1156L115.3936,434.2923L115.7511,432.4941L116.1086,430.7267L116.4660,428.9956
            L116.8235,427.3063L117.1810,425.6641L117.5385,424.0743L117.8959,422.5420L118.2534,421.0720L118.6109,419.6690L118.9684,418.3377L119.3259,417.0823L119.6833,415.9070L120.0408,414.8157
            L120.3983,413.8120L120.7558,412.8993L121.1133,412.0810L121.4707,411.3597L121.8282,410.7383L122.1857,410.2191L122.5432,409.8042L122.9007,409.4953L123.2581,409.2940L123.6156,409.2014
            L123.9731,409.2186L124.3306,409.3461L124.6880,409.5842L125.0455,409.9329L125.4030,410.3919L125.7605,410.9606L126.1180,411.6381L126.4754,412.4232L126.8329,413.3143L127.1904,414.3097
            L127.5479,415.4073L127.9054,416.6046L128.2628,417.8991L128.6203,419.2878L128.9778,420.7675L129.3353,422.3349L129.6927,423.9861L130.0502,425.7173L130.4077,427.5244L130.7652,429.4029
            L131.1227,431.3484L131.4801,433.3560L131.8376,435.4209L132.1951,437.5379L132.5526,439.7019L132.9101,441.9073L133.2675,444.1487L133.6250,446.4206L133.9825,448.7170L134.3400,451.0324
            L134.6974,453.3608L135.0549,455.6964L135.4124,458.0331L135.7699,460.3650L136.1274,462.6863L136.4848,464.9909L136.8423,467.2729L137.1998,469.5264L137.5573,471.7457L137.9148,473.9251
            L138.2722,476.0588L138.6297,478.1414L138.9872,480.1675L139.3447,482.1317L139.7022,484.0290L140.0596,485.8544L140.4171,487.6031L140.7746,489.2705L141.1321,490.8522L141.4895,492.3440
            L141.8470,493.7420L142.2045,495.0425L142.5620,496.2419L142.9195,497.3370L143.2769,498.3249L143.6344,499.2029L143.9919,499.9685L144.3494,500.6196L144.7069,501.1543L145.0643,501.5711
            L145.4218,501.8688L145.7793,502.0463L146.1368,502.1030L146.4942,502.0386L146.8517,501.8531L147.2092,501.5466L147.5667,501.1197L147.9242,500.5734L148.2816,499.9088L148.6391,499.1274
            L148.9966,498.2310L149.3541,497.2215L149.7116,496.1014L150.0690,494.8733L150.4265,493.5400L150.7840,492.1048L151.1415,490.5710L151.4989,488.9424L151.8564,487.2227L152.2139,485.4162
            L152.5714,483.5272L152.9289,481.5603L153.2863,479.5201L153.6438,477.4116L154.0013,475.2399L154.3588,473.0103L154.7163,470.7280L155.0737,468.3987L155.4312,466.0280L155.7887,463.6215
            L156.1462,461.1851L156.5037,458.7247L156.8611,456.2461L157.2186,453.7553L157.5761,451.2583L157.9336,448.7611L158.2910,446.2696L158.6485,443.7898L159.0060,441.3275L159.3635,438.8886
            L159.7210,436.4789L160.0784,434.1040L160.4359,431.7695L160.7934,429.4809L161.1509,427.2435L161.5084,425.0623L161.8658,422.9426L162.2233,420.8890L162.5808,418.9063L162.9383,416.9988
            L163.2957,415.1709L163.6532,413.4265L164.0107,411.7695L164.3682,410.2034L164.7257,408.7314L165.0831,407.3567L165.4406,406.0819L165.7981,404.9097L166.1556,403.8421L166.5131,402.8811
            L166.8705,402.0284L167.2280,401.2852L167.5855,400.6527L167.9430,400.1316L168.3005,399.7222L168.6579,399.4247L169.0154,399.2390L169.3729,399.1645L169.7304,399.2005L170.0878,399.3458
            L170.4453,399.5992L170.8028,399.9588L171.1603,400.4228L171.5178,400.9889L171.8752,401.6545L172.2327,402.4168L172.5902,403.2728L172.9477,404.2192L173.3052,405.2523L173.6626,406.3684
            L174.0201,407.5635L174.3776,408.8332L174.7351,410.1732L175.0925,411.5787L175.4500,413.0450L175.8075,414.5671L176.1650,416.1398L176.5225,417.7577L176.8799,419.4156L177.2374,421.1079
            L177.5949,422.8289L177.9524,424.5729L178.3099,426.3343L178.6673,428.1070L179.0248,429.8854L179.3823,431.6635L179.7398,433.4354L180.0972,435.1952L180.4547,436.9372L180.8122,438.6555
            L181.1697,440.3443L181.5272,441.9980L181.8846,443.6110L182.2421,445.1779L182.5996,446.6932L182.9571,448.1518L183.3146,449.5486L183.6720,450.8786L184.0295,452.1371L184.3870,453.3196
            L184.7445,454.4216L185.1020,455.4391L185.4594,456.3681L185.8169,457.2049L186.1744,457.9460L186.5319,458.5883L186.8893,459.1288L187.2468,459.5648L187.6043,459.8939L187.9618,460.1140
            L188.3193,460.2233L188.6767,460.2202L189.0342,460.1035L189.3917,459.8722L189.7492,459.5257L190.1067,459.0637L190.4641,458.4861L190.8216,457.7931L191.1791,456.9855L191.5366,456.0640
            L191.8940,455.0298L192.2515,453.8844L192.6090,452.6297L192.9665,451.2676L193.3240,449.8005L193.6814,448.2311L194.0389,446.5622L194.3964,444.7971L194.7539,442.9391L195.1114,440.9919
            L195.4688,438.9595L195.8263,436.8460L196.1838,434.6556L196.5413,432.3931L196.8987,430.0631L197.2562,427.6706L197.6137,425.2207L197.9712,422.7186L198.3287,420.1698L198.6861,417.5797
            L199.0436,414.9541L199.4011,412.2987L199.7586,409.6192L200.1161,406.9216L200.4735,404.2119L200.8310,401.4959L201.1885,398.7797L201.5460,396.0694L201.9035,393.3708L202.2609,390.6900
            L202.6184,388.0329L202.9759,385.4054L203.3334,382.8133L203.6908,380.2622L204.0483,377.7578L204.4058,375.3056L204.7633,372.9110L205.1208,370.5791L205.4782,368.3149L205.8357,366.1235
            L206.1932,364.0094L206.5507,361.9772L206.9082,360.0311L207.2656,358.1753L207.6231,356.4135L207.9806,354.7494L208.3381,353.1863L208.6955,351.7272L209.0530,350.3750L209.4105,349.1323
            L209.7680,348.0012L210.1255,346.9839L210.4829,346.0818L210.8404,345.2965L211.1979,344.6290L211.5554,344.0801L211.9129,343.6502L212.2703,343.3396L212.6278,343.1481L212.9853,343.0752
            L213.3428,343.1203L213.7003,343.2822L214.0577,343.5596L214.4152,343.9508L214.7727,344.4541L215.1302,345.0670L215.4876,345.7871L215.8451,346.6117L216.2026,347.5376L216.5601,348.5616
            L216.9176,349.6802L217.2750,350.8895L217.6325,352.1856L217.9900,353.5642L218.3475,355.0208L218.7050,356.5509L219.0624,358.1495L219.4199,359.8118L219.7774,361.5325L220.1349,363.3064
            L220.4923,365.1281L220.8498,366.9919L221.2073,368.8924L221.5648,370.8237L221.9223,372.7801L222.2797,374.7557L222.6372,376.7447L222.9947,378.7411L223.3522,380.7390L223.7097,382.7326
            L224.0671,384.7159L224.4246,386.6831L224.7821,388.6285L225.1396,390.5462L225.4970,392.4308L225.8545,394.2766L226.2120,396.0782L226.5695,397.8304L226.9270,399.5280L227.2844,401.1660
            L227.6419,402.7397L227.9994,404.2444L228.3569,405.6756L228.7144,407.0292L229.0718,408.3011L229.4293,409.4876L229.7868,410.5852L230.1443,411.5905L230.5018,412.5005L230.8592,413.3125
            L231.2167,414.0239L231.5742,414.6326L231.9317,415.1367L232.2891,415.5344L232.6466,415.8245L233.0041,416.0060L233.3616,416.0780L233.7191,416.0402L234.0765,415.8924L234.4340,415.6348
            L234.7915,415.2679L235.1490,414.7925L235.5065,414.2096L235.8639,413.5206L236.2214,412.7273L236.5789,411.8316L236.9364,410.8357L237.2938,409.7421L237.6513,408.5538L238.0088,407.2736
            L238.3663,405.9051L238.7238,404.4517L239.0812,402.9173L239.4387,401.3059L239.7962,399.6218L240.1537,397.8694L240.5112,396.0534L240.8686,394.1787L241.2261,392.2502L241.5836,390.2732
            L241.9411,388.2529L242.2985,386.1949L242.6560,384.1046L243.0135,381.9877L243.3710,379.8500L243.7285,377.6972L244.0859,375.5353L244.4434,373.3701L244.8009,371.2076L245.1584,369.0537
            L245.5159,366.9143L245.8733,364.7953L246.2308,362.7027L246.5883,360.6421L246.9458,358.6193L247.3033,356.6401L247.6607,354.7098L248.0182,352.8341L248.3757,351.0180L248.7332,349.2669
            L249.0906,347.5857L249.4481,345.9793L249.8056,344.4522L250.1631,343.0090L250.5206,341.6538L250.8780,340.3907L251.2355,339.2235L251.5930,338.1557L251.9505,337.1907L252.3080,336.3314
            L252.6654,335.5807L253.0229,334.9410L253.3804,334.4145L253.7379,334.0033L254.0953,333.7089L254.4528,333.5327L254.8103,333.4757L255.1678,333.5386L255.5253,333.7220L255.8827,334.0259
            L256.2402,334.4501L256.5977,334.9942L256.9552,335.6574L257.3127,336.4386L257.6701,337.3365L258.0276,338.3492L258.3851,339.4749L258.7426,340.7112L259.1001,342.0557L259.4575,343.5055
            L259.8150,345.0576L260.1725,346.7085L260.5300,348.4547L260.8874,350.2923L261.2449,352.2174L261.6024,354.2255L261.9599,356.3122L262.3174,358.4728L262.6748,360.7024L263.0323,362.9960
            L263.3898,365.3483L263.7473,367.7540L264.1048,370.2077L264.4622,372.7036L264.8197,375.2362L265.1772,377.7996L265.5347,380.3879L265.8921,382.9953L266.2496,385.6158L266.6071,388.2433
            L266.9646,390.8719L267.3221,393.4957L267.6795,396.1086L268.0370,398.7047L268.3945,401.2781L268.7520,403.8230L269.1095,406.3338L269.4669,408.8047L269.8244,411.2304L270.1819,413.6053
            L270.5394,415.9242L270.8968,418.1821L271.2543,420.3741L271.6118,422.4954L271.9693,424.5415L272.3268,426.5080L272.6842,428.3908L273.0417,430.1861L273.3992,431.8902L273.7567,433.4997
            L274.1142,435.0115L274.4716,436.4226L274.8291,437.7305L275.1866,438.9329L275.5441,440.0277L275.9016,441.0131L276.2590,441.8878L276.6165,442.6505L276.9740,443.3004L277.3315,443.8370
            L277.6889,444.2599L278.0464,444.5693L278.4039,444.7656L278.7614,444.8493L279.1189,444.8215L279.4763,444.6835L279.8338,444.4367L280.1913,444.0832L280.5488,443.6249L280.9063,443.0644
            L281.2637,442.4043L281.6212,441.6476L281.9787,440.7975L282.3362,439.8576L282.6936,438.8314L283.0511,437.7231L283.4086,436.5366L283.7661,435.2765L284.1236,433.9473L284.4810,432.5537
            L284.8385,431.1007L285.1960,429.5933L285.5535,428.0369L285.9110,426.4367L286.2684,424.7982L286.6259,423.1272L286.9834,421.4291L287.3409,419.7098L287.6983,417.9750L288.0558,416.2306
            L288.4133,414.4825L288.7708,412.7366L289.1283,410.9987L289.4857,409.2747L289.8432,407.5704L290.2007,405.8915L290.5582,404.2438L290.9157,402.6328L291.2731,401.0642L291.6306,399.5432
            L291.9881,398.0752L292.3456,396.6652L292.7031,395.3184L293.0605,394.0393L293.4180,392.8328L293.7755,391.7033L294.1330,390.6548L294.4904,389.6916L294.8479,388.8173L295.2054,388.0354
            L295.5629,387.3494L295.9204,386.7622L296.2778,386.2766L296.6353,385.8951L296.9928,385.6199L297.3503,385.4530L297.7078,385.3960L298.0652,385.4502L298.4227,385.6168L298.7802,385.8965
            L299.1377,386.2897L299.4951,386.7965L299.8526,387.4169L300.2101,388.1503L300.5676,388.9960L300.9251,389.9528L301.2825,391.0196L301.6400,392.1944L301.9975,393.4755L302.3550,394.8605
            L302.7125,396.3470L303.0699,397.9320L303.4274,399.6126L303.7849,401.3855L304.1424,403.2470L304.4998,405.1933L304.8573,407.2204L305.2148,409.3239L305.5723,411.4995L305.9298,413.7425
            L306.2872,416.0479L306.6447,418.4107L307.0022,420.8258L307.3597,423.2877L307.7172,425.7911L308.0746,428.3303L308.4321,430.8996L308.7896,433.4932L309.1471,436.1054L309.5046,438.7300
            L309.8620,441.3613L310.2195,443.9932L310.5770,446.6198L310.9345,449.2349L311.2919,451.8327L311.6494,454.4073L312.0069,456.9527L312.3644,459.4632L312.7219,461.9329L313.0793,464.3563
            L313.4368,466.7279L313.7943,469.0423L314.1518,471.2941L314.5093,473.4784L314.8667,475.5901L315.2242,477.6246L315.5817,479.5773L315.9392,481.4438L316.2966,483.2200L316.6541,484.9020
            L317.0116,486.4861L317.3691,487.9690L317.7266,489.3474L318.0840,490.6184L318.4415,491.7795L318.7990,492.8283L319.1565,493.7628L319.5140,494.5810L319.8714,495.2817L320.2289,495.8636
            L320.5864,496.3258L320.9439,496.6679L321.3014,496.8894L321.6588,496.9905L322.0163,496.9715L322.3738,496.8331L322.7313,496.5762L323.0887,496.2021L323.4462,495.7124L323.8037,495.1088
            L324.1612,494.3936L324.5187,493.5692L324.8761,492.6382L325.2336,491.6036L325.5911,490.4687L325.9486,489.2369L326.3061,487.9120L326.6635,486.4979L327.0210,484.9988L327.3785,483.4191
            L327.7360,481.7633L328.0934,480.0363L328.4509,478.2429L328.8084,476.3884L329.1659,474.4780L329.5234,472.5170L329.8808,470.5110L330.2383,468.4656L330.5958,466.3866L330.9533,464.2796
            L331.3108,462.1506L331.6682,460.0054L332.0257,457.8500L332.3832,455.6903L332.7407,453.5322L333.0981,451.3816L333.4556,449.2445L333.8131,447.1266L334.1706,445.0337L334.5281,442.9715
            L334.8855,440.9456L335.2430,438.9614L335.6005,437.0243L335.9580,435.1395L336.3155,433.3121L336.6729,431.5469L337.0304,429.8488L337.3879,428.2221L337.7454,426.6713L338.1029,425.2004
            L338.4603,423.8133L338.8178,422.5136L339.1753,421.3048L339.5328,420.1900L339.8902,419.1721L340.2477,418.2537L340.6052,417.4370L340.9627,416.7243L341.3202,416.1171L341.6776,415.6171
            L342.0351,415.2252L342.3926,414.9425L342.7501,414.7695L343.1076,414.7065L343.4650,414.7533L343.8225,414.9097L344.1800,415.1750L344.5375,415.5482L344.8949,416.0281L345.2524,416.6131
            L345.6099,417.3015L345.9674,418.0909L346.3249,418.9791L346.6823,419.9634L347.0398,421.0408L347.3973,422.2081L347.7548,423.4617L348.1123,424.7981L348.4697,426.2133L348.8272,427.7030
            L349.1847,429.2630L349.5422,430.8887L349.8996,432.5752L350.2571,434.3177L350.6146,436.1110L350.9721,437.9500L351.3296,439.8292L351.6870,441.7432L352.0445,443.6862L352.4020,445.6528
            L352.7595,447.6370L353.1170,449.6330L353.4744,451.6351L353.8319,453.6372L354.1894,455.6335L354.5469,457.6180L354.9044,459.5849L355.2618,461.5284L355.6193,463.4425L355.9768,465.3216
            L356.3343,467.1600L356.6917,468.9522L357.0492,470.6926L357.4067,472.3760L357.7642,473.9972L358.1217,475.5510L358.4791,477.0328L358.8366,478.4377L359.1941,479.7613L359.5516,480.9993
            L359.9091,482.1476L360.2665,483.2023L360.6240,484.1598L360.9815,485.0169L361.3390,485.7702L361.6964,486.4171L362.0539,486.9548L362.4114,487.3812L362.7689,487.6942L363.1264,487.8921
            L363.4838,487.9734L363.8413,487.9370L364.1988,487.7821L364.5563,487.5081L364.9138,487.1148L365.2712,486.6024L365.6287,485.9712L365.9862,485.2218L366.3437,484.3554L366.7012,483.3731
            L367.0586,482.2767L367.4161,481.0679L367.7736,479.7490L368.1311,478.3224L368.4885,476.7908L368.8460,475.1574L369.2035,473.4253L369.5610,471.5980L369.9185,469.6794L370.2759,467.6735
            L370.6334,465.5844L370.9909,463.4166L371.3484,461.1747L371.7059,458.8636L372.0633,456.4883L372.4208,454.0540L372.7783,451.5659L373.1358,449.0295L373.4932,446.4505L373.8507,443.8344
            L374.2082,441.1870L374.5657,438.5143L374.9232,435.8221L375.2806,433.1163L375.6381,430.4031L375.9956,427.6883L376.3531,424.9779L376.7106,422.2781L377.0680,419.5946L377.4255,416.9335
            L377.7830,414.3006L378.1405,411.7015L378.4979,409.1421L378.8554,406.6279L379.2129,404.1642L379.5704,401.7565L379.9279,399.4098L380.2853,397.1291L380.6428,394.9193L381.0003,392.7849
            L381.3578,390.7305L381.7153,388.7601L382.0727,386.8777L382.4302,385.0872L382.7877,383.3919L383.1452,381.7952L383.5027,380.2999L383.8601,378.9089L384.2176,377.6246L384.5751,376.4490
            L384.9326,375.3841L385.2900,374.4314L385.6475,373.5922L386.0050,372.8674L386.3625,372.2578L386.7200,371.7636L387.0774,371.3850L387.4349,371.1216L387.7924,370.9730L388.1499,370.9382
            L388.5074,371.0161L388.8648,371.2052L389.2223,371.5038L389.5798,371.9099L389.9373,372.4210L390.2947,373.0347L390.6522,373.7480L391.0097,374.5578L391.3672,375.4608L391.7247,376.4532
            L392.0821,377.5312L392.4396,378.6908L392.7971,379.9276L393.1546,381.2371L393.5121,382.6147L393.8695,384.0553L394.2270,385.5542L394.5845,387.1059L394.9420,388.7053L395.2994,390.3468
            L395.6569,392.0249L396.0144,393.7340L396.3719,395.4683L396.7294,397.2221L397.0868,398.9895L397.4443,400.7647L397.8018,402.5417L398.1593,404.3147L398.5168,406.0778L398.8742,407.8252
            L399.2317,409.5511L399.5892,411.2498L399.9467,412.9156L400.3042,414.5429L400.6616,416.1264L401.0191,417.6607L401.3766,419.1406L401.7341,420.5610L402.0915,421.9171L402.4490,423.2042
            L402.8065,424.4178L403.1640,425.5536L403.5215,426.6075L403.8789,427.5755L404.2364,428.4541L404.5939,429.2399L404.9514,429.9297L405.3089,430.5207L405.6663,431.0102L406.0238,431.3960
            L406.3813,431.6759L406.7388,431.8482L407.0962,431.9114L407.4537,431.8644L407.8112,431.7063L408.1687,431.4365L408.5262,431.0548L408.8836,430.5612L409.2411,429.9560L409.5986,429.2399
            L409.9561,428.4139L410.3136,427.4792L410.6710,426.4373L411.0285,425.2902L411.3860,424.0398L411.7435,422.6888L412.1010,421.2396L412.4584,419.6954L412.8159,418.0593L413.1734,416.3348
            L413.5309,414.5256L413.8883,412.6358L414.2458,410.6694L414.6033,408.6308L414.9608,406.5248L415.3183,404.3559L415.6757,402.1293L416.0332,399.8501L416.3907,397.5234L416.7482,395.1548
            L417.1057,392.7497L417.4631,390.3139L417.8206,387.8530L418.1781,385.3730L418.5356,382.8795L418.8930,380.3787L419.2505,377.8764L419.6080,375.3786L419.9655,372.8913L420.3230,370.4205
            L420.6804,367.9720L421.0379,365.5519L421.3954,363.1658L421.7529,360.8196L422.1104,358.5188L422.4678,356.2691L422.8253,354.0758L423.1828,351.9443L423.5403,349.8797L423.8977,347.8869
            L424.2552,345.9707L424.6127,344.1358L424.9702,342.3865L425.3277,340.7271L425.6851,339.1615L426.0426,337.6934L426.4001,336.3263L426.7576,335.0635L427.1151,333.9079L427.4725,332.8622
            L427.8300,331.9289L428.1875,331.1101L428.5450,330.4076L428.9025,329.8231L429.2599,329.3577L429.6174,329.0124L429.9749,328.7879L430.3324,328.6845L430.6898,328.7022L431.0473,328.8409
            L431.4048,329.0999L431.7623,329.4784L432.1198,329.9751L432.4772,330.5887L432.8347,331.3173L433.1922,332.1589L433.5497,333.1111L433.9072,334.1713L434.2646,335.3367L434.6221,336.6040
            L434.9796,337.9698L435.3371,339.4306L435.6945,340.9823L436.0520,342.6209L436.4095,344.3421L436.7670,346.1412L437.1245,348.0136L437.4819,349.9544L437.8394,351.9584L438.1969,354.0204
            L438.5544,356.1351L438.9119,358.2970L439.2693,360.5004L439.6268,362.7397L439.9843,365.0090L440.3418,367.3026L440.6992,369.6144L441.0567,371.9387L441.4142,374.2694L441.7717,376.6005
            L442.1292,378.9262L442.4866,381.2405L442.8441,383.5376L443.2016,385.8116L443.5591,388.0568L443.9166,390.2676L444.2740,392.4384L444.6315,394.5638L444.9890,396.6385L445.3465,398.6574
            L445.7040,400.6155L446.0614,402.5079L446.4189,404.3302L446.7764,406.0779L447.1339,407.7467L447.4913,409.3327L447.8488,410.8321L448.2063,412.2414L448.5638,413.5575L448.9213,414.7771
            L449.2787,415.8978L449.6362,416.9169L449.9937,417.8323L450.3512,418.6422L450.7087,419.3449L451.0661,419.9392L451.4236,420.4240L451.7811,420.7987L452.1386,421.0629L452.4960,421.2164
            L452.8535,421.2596L453.2110,421.1929L453.5685,421.0171L453.9260,420.7335L454.2834,420.3433L454.6409,419.8484L454.9984,419.2507L455.3559,418.5526L455.7134,417.7566L456.0708,416.8656
            L456.4283,415.8826L456.7858,414.8110L457.1433,413.6544L457.5008,412.4167L457.8582,411.1019L458.2157,409.7143L458.5732,408.2585L458.9307,406.7390L459.2881,405.1607L459.6456,403.5286
            L460.0031,401.8480L460.3606,400.1242L460.7181,398.3625L461.0755,396.5685L461.4330,394.7479L461.7905,392.9064L462.1480,391.0497L462.5055,389.1838L462.8629,387.3145L463.2204,385.4477
            L463.5779,383.5892L463.9354,381.7451L464.2928,379.9210L464.6503,378.1229L465.0078,376.3564L465.3653,374.6273L465.7228,372.9411L466.0802,371.3034L466.4377,369.7194L466.7952,368.1944
            L467.1527,366.7335L467.5102,365.3415L467.8676,364.0233L468.2251,362.7834L468.5826,361.6261L468.9401,360.5556L469.2975,359.5758L469.6550,358.6904L470.0125,357.9028L470.3700,357.2162
            L470.7275,356.6336L471.0849,356.1576L471.4424,355.7906L471.7999,355.5348L472.1574,355.3918L472.5149,355.3633L472.8723,355.4505L473.2298,355.6542L473.5873,355.9753L473.9448,356.4138
            L474.3023,356.9699L474.6597,357.6433L475.0172,358.4334L475.3747,359.3392L475.7322,360.3596L476.0896,361.4930L476.4471,362.7378L476.8046,364.0917L477.1621,365.5524L477.5196,367.1172
            L477.8770,368.7833L478.2345,370.5474L478.5920,372.4061L478.9495,374.3558L479.3070,376.3924L479.6644,378.5118L480.0219,380.7097L480.3794,382.9814L480.7369,385.3223L481.0943,387.7273
            L481.4518,390.1913L481.8093,392.7091L482.1668,395.2752L482.5243,397.8842L482.8817,400.5303L483.2392,403.2077L483.5967,405.9108L483.9542,408.6335L484.3117,411.3700L484.6691,414.1142
            L485.0266,416.8601L485.3841,419.6018L485.7416,422.3331L486.0990,425.0483L486.4565,427.7412L486.8140,430.4061L487.1715,433.0372L487.5290,435.6287L487.8864,438.1750L488.2439,440.6707
            L488.6014,443.1104L488.9589,445.4890L489.3164,447.8012L489.6738,450.0424L490.0313,452.2077L490.3888,454.2927L490.7463,456.2932L491.1038,458.2050L491.4612,460.0244L491.8187,461.7478
            L492.1762,463.3717L492.5337,464.8933L492.8911,466.3095L493.2486,467.6181L493.6061,468.8165L493.9636,469.9031L494.3211,470.8759L494.6785,471.7338L495.0360,472.4755L495.3935,473.1004
            L495.7510,473.6080L496.1085,473.9981L496.4659,474.2708L496.8234,474.4267L497.1809,474.4665L497.5384,474.3912L497.8958,474.2023L498.2533,473.9012L498.6108,473.4901L498.9683,472.9711
            L499.3258,472.3468L499.6832,471.6199L500.0407,470.7934L500.3982,469.8708L500.7557,468.8554L501.1132,467.7512L501.4706,466.5622L501.8281,465.2925L502.1856,463.9466L502.5431,462.5292
            L502.9006,461.0450L503.2580,459.4992L503.6155,457.8967L503.9730,456.2429L504.3305,454.5433L504.6879,452.8033L505.0454,451.0285L505.4029,449.2247L505.7604,447.3976L506.1179,445.5532
            L506.4753,443.6971L506.8328,441.8354L507.1903,439.9739L507.5478,438.1185L507.9053,436.2751L508.2627,434.4495L508.6202,432.6474L508.9777,430.8746L509.3352,429.1366L509.6926,427.4390
            L510.0501,425.7870L510.4076,424.1861L510.7651,422.6412L511.1226,421.1574L511.4800,419.7394L511.8375,418.3918L512.1950,417.1190L512.5525,415.9251L512.9100,414.8143L513.2674,413.7901
            L513.6249,412.8561L513.9824,412.0155L514.3399,411.2714L514.6973,410.6263L515.0548,410.0829L515.4123,409.6432L515.7698,409.3092L516.1273,409.0823L516.4847,408.9640L516.8422,408.9552
            L517.1997,409.0566L517.5572,409.2686L517.9147,409.5912L518.2721,410.0244L518.6296,410.5674L518.9871,411.2195L519.3446,411.9796L519.7021,412.8463L520.0595,413.8177L520.4170,414.8920
            L520.7745,416.0668L521.1320,417.3395L521.4894,418.7073L521.8469,420.1670L522.2044,421.7154L522.5619,423.3487L522.9194,425.0631L523.2768,426.8546L523.6343,428.7188L523.9918,430.6513
            L524.3493,432.6472L524.7068,434.7018L525.0642,436.8101L525.4217,438.9667L525.7792,441.1663L526.1367,443.4035L526.4941,445.6727L526.8516,447.9682L527.2091,450.2841L527.5666,452.6148
            L527.9241,454.9542L528.2815,457.2965L528.6390,459.6357L528.9965,461.9658L529.3540,464.2810L529.7115,466.5752L530.0689,468.8426L530.4264,471.0773L530.7839,473.2737L531.1414,475.4261
            L531.4988,477.5288L531.8563,479.5765L532.2138,481.5638L532.5713,483.4856L532.9288,485.3369L533.2862,487.1127L533.6437,488.8086L534.0012,490.4199L534.3587,491.9425L534.7162,493.3724
            L535.0736,494.7057L535.4311,495.9390L535.7886,497.0688L536.1461,498.0921L536.5036,499.0063L536.8610,499.8087L537.2185,500.4972L537.5760,501.0698L537.9335,501.5249L538.2909,501.8611
            L538.6484,502.0775L539.0059,502.1731L539.3634,502.1478L539.7209,502.0012L540.0783,501.7336L540.4358,501.3454L540.7933,500.8375L541.1508,500.2109L541.5083,499.4670L541.8657,498.6076
            L542.2232,497.6345L542.5807,496.5501L542.9382,495.3569L543.2956,494.0578L543.6531,492.6557L544.0106,491.1541L544.3681,489.5566L544.7256,487.8669L545.0830,486.0892L545.4405,484.2278
            L545.7980,482.2870L546.1555,480.2717L546.5130,478.1867L546.8704,476.0370L547.2279,473.8279L547.5854,471.5646L547.9429,469.2528L548.3004,466.8978L548.6578,464.5056L549.0153,462.0817
            L549.3728,459.6321L549.7303,457.1627L550.0877,454.6795L550.4452,452.1883L550.8027,449.6952L551.1602,447.2061L551.5177,444.7271L551.8751,442.2639L552.2326,439.8225L552.5901,437.4086
            L552.9476,435.0279L553.3051,432.6861L553.6625,430.3886L554.0200,428.1407L554.3775,425.9478L554.7350,423.8147L555.0924,421.7465L555.4499,419.7479L555.8074,417.8232L556.1649,415.9769
            L556.5224,414.2131L556.8798,412.5354L557.2373,410.9477L557.5948,409.4532L557.9523,408.0551L558.3098,406.7562L558.6672,405.5590L559.0247,404.4659L559.3822,403.4789L559.7397,402.5997
            L560.0971,401.8296L560.4546,401.1699L560.8121,400.6213L561.1696,400.1843L561.5271,399.8593L561.8845,399.6459L562.2420,399.5440L562.5995,399.5527L562.9570,399.6711L563.3145,399.8978
            L563.6719,400.2313L564.0294,400.6696L564.3869,401.2106L564.7444,401.8518L565.1019,402.5906L565.4593,403.4238L565.8168,404.3483L566.1743,405.3605L566.5318,406.4568L566.8892,407.6330
            L567.2467,408.8851L567.6042,410.2086L567.9617,411.5990L568.3192,413.0514L568.6766,414.5609L569.0341,416.1224L569.3916,417.7307L569.7491,419.3803L570.1066,421.0658L570.4640,422.7816
            L570.8215,424.5219L571.1790,426.2811L571.5365,428.0533L571.8939,429.8326L572.2514,431.6133L572.6089,433.3893L572.9664,435.1549L573.3239,436.9041L573.6813,438.6312L574.0388,440.3304
            L574.3963,441.9959L574.7538,443.6223L575.1113,445.2040L575.4687,446.7355L575.8262,448.2117L576.1837,449.6274L576.5412,450.9776L576.8986,452.2576L577.2561,453.4627L577.6136,454.5885
            L577.9711,455.6308L578.3286,456.5857L578.6860,457.4493L579.0435,458.2181L579.4010,458.8888L579.7585,459.4585L580.1160,459.9244L580.4734,460.2840L580.8309,460.5350L581.1884,460.6757
            L581.5459,460.7043L581.9034,460.6195L582.2608,460.4203L582.6183,460.1061L582.9758,459.6762L583.3333,459.1307L583.6907,458.4698L584.0482,457.6938L584.4057,456.8037L584.7632,455.8005
            L585.1207,454.6856L585.4781,453.4607L585.8356,452.1278L586.1931,450.6892L586.5506,449.1474L586.9081,447.5052L587.2655,445.7659L587.6230,443.9326L587.9805,442.0091L588.3380,439.9991
            L588.6954,437.9067L589.0529,435.7363L589.4104,433.4924L589.7679,431.1795L590.1254,428.8028L590.4828,426.3671L590.8403,423.8777L591.1978,421.3400L591.5553,418.7595L591.9128,416.1417
            L592.2702,413.4925L592.6277,410.8175L592.9852,408.1228L593.3427,405.4141L593.7002,402.6975L594.0576,399.9790L594.4151,397.2646L594.7726,394.5603L595.1301,391.8720L595.4875,389.2057
            L595.8450,386.5673L596.2025,383.9626L596.5600,381.3974L596.9175,378.8772L597.2749,376.4076L597.6324,373.9941L597.9899,371.6418L598.3474,369.3559L598.7049,367.1412L599.0623,365.0026
            L599.4198,362.9445L599.7773,360.9714L600.1348,359.0874L600.4922,357.2963L600.8497,355.6018L601.2072,354.0074L601.5647,352.5162L601.9222,351.1310L602.2796,349.8546L602.6371,348.6892
            L602.9946,347.6368L603.3521,346.6994L603.7096,345.8783L604.0670,345.1746L604.4245,344.5893L604.7820,344.1229L605.1395,343.7757L605.4969,343.5476L605.8544,343.4383L606.2119,343.4471
            L606.5694,343.5730L606.9269,343.8148L607.2843,344.1709L607.6418,344.6394L607.9993,345.2183L608.3568,345.9050L608.7143,346.6969L609.0717,347.5911L609.4292,348.5842L609.7867,349.6728
            L610.1442,350.8533L610.5017,352.1215L610.8591,353.4735L611.2166,354.9047L611.5741,356.4106L611.9316,357.9864L612.2890,359.6272L612.6465,361.3279L613.0040,363.0832L613.3615,364.8877
            L613.7190,366.7359L614.0764,368.6223L614.4339,370.5411L614.7914,372.4866L615.1489,374.4528L615.5064,376.4341L615.8638,378.4244L616.2213,380.4178L616.5788,382.4085L616.9363,384.3905
            L617.2937,386.3580L617.6512,388.3052L618.0087,390.2264L618.3662,392.1159L618.7237,393.9681L619.0811,395.7777L619.4386,397.5392L619.7961,399.2475L620.1536,400.8976L620.5111,402.4847
            L620.8685,404.0039L621.2260,405.4510L621.5835,406.8215L621.9410,408.1114L622.2984,409.3169L622.6559,410.4344L623.0134,411.4605L623.3709,412.3921L623.7284,413.2264L624.0858,413.9609
            L624.4433,414.5931L624.8008,415.1212L625.1583,415.5434L625.5158,415.8583L625.8732,416.0647L626.2307,416.1619L626.5882,416.1494L626.9457,416.0268L627.3032,415.7944L627.6606,415.4525
            L627.8112,415.2627"/>
  </g>
  <g style="fill:#FF0000; fill-rule:nonzero">
   <ellipse  rx="3.3660" ry="3.3660" cx="91.8000" cy="415.3500"/>
  </g>
  <g style="fill:none; stroke:#000000; stroke-width:  0.9180; stroke-linecap:butt; stroke-linejoin:miter; stroke-dasharray:none">
   <ellipse  rx="3.3660" ry="3.3660" cx="91.8000" cy="415.3500"/>
  </g>
  <g style="fill:#FF0000; fill-rule:nonzero">
   <ellipse  rx="3.3660" ry="3.3660" cx="129.4105" cy="422.6757"/>
  </g>
  <g style="fill:none; stroke:#000000; stroke-width:  0.9180; stroke-linecap:butt; stroke-linejoin:miter; stroke-dasharray:none">
   <ellipse  rx="3.3660" ry="3.3660" cx="129.4105" cy="422.6757"/>
  </g>
  <g style="fill:#FF0000; fill-rule:nonzero">
   <ellipse  rx="3.3660" ry="3.3660" cx="167.0211" cy="401.7020"/>
  </g>
  <g style="fill:none; stroke:#000000; stroke-width:  0.9180; stroke-linecap:butt; stroke-linejoin:miter; stroke-dasharray:none">
   <ellipse  rx="3.3660" ry="3.3660" cx="167.0211" cy="401.7020"/>
  </g>
  <g style="fill:#FF0000; fill-rule:nonzero">
   <ellipse  rx="3.3660" ry="3.3660" cx="204.6316" cy="373.7862"/>
  </g>
  <g style="fill:none; stroke:#000000; stroke-width:  0.9180; stroke-linecap:butt; stroke-linejoin:miter; stroke-dasharray:none">
   <ellipse  rx="3.3660" ry="3.3660" cx="204.6316" cy="373.7862"/>
  </g>
  <g style="fill:#FF0000; fill-rule:nonzero">
   <ellipse  rx="3.3660" ry="3.3660" cx="242.2421" cy="386.5221"/>
  </g>
  <g style="fill:none; stroke:#000000; stroke-width:  0.9180; stroke-linecap:butt; stroke-linejoin:miter; stroke-dasharray:none">
   <ellipse  rx="3.3660" ry="3.3660" cx="242.2421" cy="386.5221"/>
  </g>
  <g style="fill:#FF0000; fill-rule:nonzero">
   <ellipse  rx="3.3660" ry="3.3660" cx="279.8526" cy="444.4208"/>
  </g>
  <g style="fill:none; stroke:#000000; stroke-width:  0.9180; stroke-linecap:butt; stroke-linejoin:miter; stroke-dasharray:none">
   <ellipse  rx="3.3660" ry="3.3660" cx="279.8526" cy="444.4208"/>
  </g>
  <g style="fill:#FF0000; fill-rule:nonzero">
   <ellipse  rx="3.3660" ry="3.3660" cx="317.4632" cy="488.3420"/>
  </g>
  <g style="fill:none; stroke:#000000; stroke-width:  0.9180; stroke-linecap:butt; stroke-linejoin:miter; stroke-dasharray:none">
   <ellipse  rx="3.3660" ry="3.3660" cx="317.4632" cy="488.3420"/>
  </g>
  <g style="fill:#FF0000; fill-rule:nonzero">
   <ellipse  rx="3.3660" ry="3.3660" cx="355.0737" cy="460.5088"/>
  </g>
  <g style="fill:none; stroke:#000000; stroke-width:  0.9180; stroke-linecap:butt; stroke-linejoin:miter; stroke-dasharray:none">
   <ellipse  rx="3.3660" ry="3.3660" cx="355.0737" cy="460.5088"/>
  </g>
  <g style="fill:#FF0000; fill-rule:nonzero">
   <ellipse  rx="3.3660" ry="3.3660" cx="392.6842" cy="379.5289"/>
  </g>
  <g style="fill:none; stroke:#000000; stroke-width:  0.9180; stroke-linecap:butt; stroke-linejoin:miter; stroke-dasharray:none">
   <ellipse  rx="3.3660" ry="3.3660" cx="392.6842" cy="379.5289"/>
  </g>
  <g style="fill:#FF0000; fill-rule:nonzero">
   <ellipse  rx="3.3660" ry="3.3660" cx="430.2947" cy="328.6896"/>
  </g>
  <g style="fill:none; stroke:#000000; stroke-width:  0.9180; stroke-linecap:butt; stroke-linejoin:miter; stroke-dasharray:none">
   <ellipse  rx="3.3660" ry="3.3660" cx="430.2947" cy="328.6896"/>
  </g>
  <g style="fill:#FF0000; fill-rule:nonzero">
   <ellipse  rx="3.3660" ry="3.3660" cx="467.9053" cy="363.8891"/>
  </g>
  <g style="fill:none; stroke:#000000; stroke-width:  0.9180; stroke-linecap:butt; stroke-linejoin:miter; stroke-dasharray:none">
   <ellipse  rx="3.3660" ry="3.3660" cx="467.9053" cy="363.8891"/>
  </g>
  <g style="fill:#FF0000; fill-rule:nonzero">
   <ellipse  rx="3.3660" ry="3.3660" cx="505.5158" cy="448.6500"/>
  </g>
  <g style="fill:none; stroke:#000000; stroke-width:  0.9180; stroke-linecap:butt; stroke-linejoin:miter; stroke-dasharray:none">
   <ellipse  rx="3.3660" ry="3.3660" cx="505.5158" cy="448.6500"/>
  </g>
  <g style="fill:#FF0000; fill-rule:nonzero">
   <ellipse  rx="3.3660" ry="3.3660" cx="543.1263" cy="494.6862"/>
  </g>
  <g style="fill:none; stroke:#000000; stroke-width:  0.9180; stroke-linecap:butt; stroke-linejoin:miter; stroke-dasharray:none">
   <ellipse  rx="3.3660" ry="3.3660" cx="543.1263" cy="494.6862"/>
  </g>
  <g style="fill:#FF0000; fill-rule:nonzero">
   <ellipse  rx="3.3660" ry="3.3660" cx="580.7368" cy="460.4796"/>
  </g>
  <g style="fill:none; stroke:#000000; stroke-width:  0.9180; stroke-linecap:butt; stroke-linejoin:miter; stroke-dasharray:none">
   <ellipse  rx="3.3660" ry="3.3660" cx="580.7368" cy="460.4796"/>
  </g>
  <g style="fill:#FF0000; fill-rule:nonzero">
   <ellipse  rx="3.3660" ry="3.3660" cx="618.3474" cy="392.0173"/>
  </g>
  <g style="fill:none; stroke:#000000; stroke-width:  0.9180; stroke-linecap:butt; stroke-linejoin:miter; stroke-dasharray:none">
   <ellipse  rx="3.3660" ry="3.3660" cx="618.3474" cy="392.0173"/>
   <path d="M91.8000,310.5000L627.7500,310.5000"/>
   <path d="M91.8000,520.2000L627.7500,520.2000"/>
   <path d="M127.5300,310.5000L127.5300,316.6200"/>
   <path d="M127.5300,520.2000L127.5300,514.0800"/>
   <path d="M198.9900,310.5000L198.9900,316.6200"/>
   <path d="M198.9900,520.2000L198.9900,514.0800"/>
   <path d="M270.4500,310.5000L270.4500,316.6200"/>
   <path d="M270.4500,520.2000L270.4500,514.0800"/>
   <path d="M341.9100,310.5000L341.9100,316.6200"/>
   <path d="M341.9100,520.2000L341.9100,514.0800"/>
   <path d="M413.3700,310.5000L413.3700,316.6200"/>
   <path d="M413.3700,520.2000L413.3700,514.0800"/>
   <path d="M484.8300,310.5000L484.8300,316.6200"/>
   <path d="M484.8300,520.2000L484.8300,514.0800"/>
   <path d="M556.2900,310.5000L556.2900,316.6200"/>
   <path d="M556.2900,520.2000L556.2900,514.0800"/>
   <path d="M627.7500,310.5000L627.7500,316.6200"/>
   <path d="M627.7500,520.2000L627.7500,514.0800"/>
   <path d="M91.8000,310.5000L91.8000,322.7400"/>
   <path d="M91.8000,520.2000L91.8000,507.9600"/>
   <path d="M163.2600,310.5000L163.2600,322.7400"/>
   <path d="M163.2600,520.2000L163.2600,507.9600"/>
   <path d="M234.7200,310.5000L234.7200,322.7400"/>
   <path d="M234.7200,520.2000L234.7200,507.9600"/>
   <path d="M306.1800,310.5000L306.1800,322.7400"/>
   <path d="M306.1800,520.2000L306.1800,507.9600"/>
   <path d="M377.6400,310.5000L377.6400,322.7400"/>
   <path d="M377.6400,520.2000L377.6400,507.9600"/>
   <path d="M449.1000,310.5000L449.1000,322.7400"/>
   <path d="M449.1000,520.2000L449.1000,507.9600"/>
   <path d="M520.5600,310.5000L520.5600,322.7400"/>
   <path d="M520.5600,520.2000L520.5600,507.9600"/>
   <path d="M592.0200,310.5000L592.0200,322.7400"/>
   <path d="M592.0200,520.2000L592.0200,507.9600"/>
  </g>
  <g style="fill:#000000; fill-rule:nonzero">
   <text   style="font-family:'Helvetica','Nimbus Sans L'; font-style:normal; font-weight:normal; font-size:612.0000" transform="matrix(0.0280,0.0000,-0.0000,-0.0280,87.3000,292.3800)">0</text>
   <text   style="font-family:'Helvetica','Nimbus Sans L'; font-style:normal; font-weight:normal; font-size:612.0000" transform="matrix(0.0280,0.0000,-0.0000,-0.0280,158.7600,292.3800)">2</text>
   <text   style="font-family:'Helvetica','Nimbus Sans L'; font-style:normal; font-weight:normal; font-size:612.0000" transform="matrix(0.0280,0.0000,-0.0000,-0.0280,230.2200,292.3800)">4</text>
   <text   style="font-family:'Helvetica','Nimbus Sans L'; font-style:normal; font-weight:normal; font-size:612.0000" transform="matrix(0.0280,0.0000,-0.0000,-0.0280,301.6800,292.3800)">6</text>
   <text   style="font-family:'Helvetica','Nimbus Sans L'; font-style:normal; font-weight:normal; font-size:612.0000" transform="matrix(0.0280,0.0000,-0.0000,-0.0280,373.1400,292.3800)">8</text>
   <text   style="font-family:'Helvetica','Nimbus Sans L'; font-style:normal; font-weight:normal; font-size:612.0000" transform="matrix(0.0280,0.0000,-0.0000,-0.0280,439.6000,292.3800)">10</text>
   <text   style="font-family:'Helvetica','Nimbus Sans L'; font-style:normal; font-weight:normal; font-size:612.0000" transform="matrix(0.0280,0.0000,-0.0000,-0.0280,511.0600,292.3800)">12</text>
   <text   style="font-family:'Helvetica','Nimbus Sans L'; font-style:normal; font-weight:normal; font-size:612.0000" transform="matrix(0.0280,0.0000,-0.0000,-0.0280,582.5200,292.3800)">14</text>
   <text   style="font-family:'Helvetica','Nimbus Sans L'; font-style:normal; font-weight:normal; font-size:612.0000" transform="matrix(0.0378,0.0000,-0.0000,-0.0378,338.2750,269.2600)">time</text>
  </g>
  <g style="fill:none; stroke:#000000; stroke-width:  0.9180; stroke-linecap:butt; stroke-linejoin:miter; stroke-dasharray:none">
   <path d="M91.8000,310.5000L91.8000,520.2000"/>
   <path d="M627.7500,310.5000L627.7500,520.2000"/>
   <path d="M91.8000,371.6625L97.9200,371.6625"/>
   <path d="M627.7500,371.6625L621.6300,371.6625"/>
   <path d="M91.8000,459.0375L97.9200,459.0375"/>
   <path d="M627.7500,459.0375L621.6300,459.0375"/>
   <path d="M91.8000,327.9750L104.0400,327.9750"/>
   <path d="M627.7500,327.9750L615.5100,327.9750"/>
   <path d="M91.8000,415.3500L104.0400,415.3500"/>
   <path d="M627.7500,415.3500L615.5100,415.3500"/>
   <path d="M91.8000,502.7250L104.0400,502.7250"/>
   <path d="M627.7500,502.7250L615.5100,502.7250"/>
  </g>
  <g style="fill:#000000; fill-rule:nonzero">
   <text   style="font-family:'Helvetica','Nimbus Sans L'; font-style:normal; font-weight:normal; font-size:612.0000" transform="matrix(0.0280,0.0000,-0.0000,-0.0280,73.6800,321.9750)">-1</text>
   <text   style="font-family:'Helvetica','Nimbus Sans L'; font-style:normal; font-weight:normal; font-size:612.0000" transform="matrix(0.0280,0.0000,-0.0000,-0.0280,76.6800,409.3500)">0</text>
   <text   style="font-family:'Helvetica','Nimbus Sans L'; font-style:normal; font-weight:normal; font-size:612.0000" transform="matrix(0.0280,0.0000,-0.0000,-0.0280,79.6800,496.7250)">1</text>
  </g>
  <g style="fill:none; stroke:#000000; stroke-width:  0.9180; stroke-linecap:butt; stroke-linejoin:miter; stroke-dasharray:none">
   <path d="M91.8000,310.5000L91.8000,520.2000L627.7500,520.2000L627.7500,310.5000z"/>
  </g>
 </g>
</svg>
